<?xml version="1.0" encoding="UTF-8" standalone="no"?>
<!DOCTYPE svg PUBLIC "-//W3C//DTD SVG 1.1//EN"
 "http://www.w3.org/Graphics/SVG/1.1/DTD/svg11.dtd">
<!-- Generated by graphviz version 14.1.5 (20260411.2331)
 -->
<!-- Title: sales_school_portal_architecture Pages: 1 -->
<svg width="1635pt" height="460pt"
 viewBox="0.00 0.00 1635.00 460.00" xmlns="http://www.w3.org/2000/svg" xmlns:xlink="http://www.w3.org/1999/xlink" role="img" aria-labelledby="sales-school-portal-architecture-svg-title sales-school-portal-architecture-svg-desc">
<title id="sales-school-portal-architecture-svg-title">Proposed Sales School portal architecture</title>
<desc id="sales-school-portal-architecture-svg-desc">The proposed Sales School portal architecture starts with Course home at /sales-school. It contains Today, Day One, Day Two, Resources, and Facilitator. Day One contains Breakouts 1 through 3, Day Two contains Breakouts 4 through 6, Wistia remains the media layer, and search, progress, admin editing, cohorts, and login are optional later scope.</desc>
<g id="graph0" class="graph" transform="scale(1 1) rotate(0) translate(18 442.44)">
<title>sales_school_portal_architecture</title>
<text xml:space="preserve" text-anchor="middle" x="799.53" y="-404.24" font-family="Arial" font-size="18.00">Proposed Sales School portal architecture</text>
<!-- page&#45;course&#45;home -->
<g id="page&#45;course&#45;home" class="node">
<title>page&#45;course&#45;home</title>
<g id="a_page&#45;course&#45;home"><a xlink:title="page&#45;course&#45;home: Course home">
<path fill="#edf5ff" stroke="#376392" stroke-width="1.2" d="M831.24,-394.84C831.24,-394.84 762.54,-394.84 762.54,-394.84 756.54,-394.84 750.54,-388.84 750.54,-382.84 750.54,-382.84 750.54,-354.28 750.54,-354.28 750.54,-348.28 756.54,-342.28 762.54,-342.28 762.54,-342.28 831.24,-342.28 831.24,-342.28 837.24,-342.28 843.24,-348.28 843.24,-354.28 843.24,-354.28 843.24,-382.84 843.24,-382.84 843.24,-388.84 837.24,-394.84 831.24,-394.84"/>
<text xml:space="preserve" text-anchor="middle" x="796.89" y="-378.46" font-family="Arial" font-size="11.00">Course home</text>
<text xml:space="preserve" text-anchor="middle" x="796.89" y="-365.26" font-family="Arial" font-size="11.00">[root&#45;page]</text>
<text xml:space="preserve" text-anchor="middle" x="796.89" y="-352.06" font-family="Arial" font-size="11.00">Proposed MVP</text>
</a>
</g>
</g>
<!-- page&#45;today -->
<g id="page&#45;today" class="node">
<title>page&#45;today</title>
<g id="a_page&#45;today"><a xlink:title="page&#45;today: Today">
<path fill="#fffdfa" stroke="#817363" stroke-width="1.2" d="M221.49,-277.48C221.49,-277.48 136.28,-277.48 136.28,-277.48 130.28,-277.48 124.28,-271.48 124.28,-265.48 124.28,-265.48 124.28,-236.92 124.28,-236.92 124.28,-230.92 130.28,-224.92 136.28,-224.92 136.28,-224.92 221.49,-224.92 221.49,-224.92 227.49,-224.92 233.49,-230.92 233.49,-236.92 233.49,-236.92 233.49,-265.48 233.49,-265.48 233.49,-271.48 227.49,-277.48 221.49,-277.48"/>
<text xml:space="preserve" text-anchor="middle" x="178.89" y="-261.1" font-family="Arial" font-size="11.00">Today</text>
<text xml:space="preserve" text-anchor="middle" x="178.89" y="-247.9" font-family="Arial" font-size="11.00">[live&#45;surface&#45;page]</text>
<text xml:space="preserve" text-anchor="middle" x="178.89" y="-234.7" font-family="Arial" font-size="11.00">Live surface</text>
</a>
</g>
</g>
<!-- page&#45;course&#45;home&#45;&gt;page&#45;today -->
<g id="relation&#45;home&#45;contains&#45;today" class="edge">
<title>page&#45;course&#45;home&#45;&gt;page&#45;today</title>
<g id="a_relation&#45;home&#45;contains&#45;today"><a xlink:title="relation&#45;home&#45;contains&#45;today: page&#45;course&#45;home contains page&#45;today">
<path fill="none" stroke="#b6aa9b" stroke-width="1.1" d="M750.18,-384C606.21,-384 178.89,-384 178.89,-384 178.89,-384 178.89,-316.88 178.89,-278.07"/>
</a>
</g>
</g>
<!-- page&#45;day&#45;one -->
<g id="page&#45;day&#45;one" class="node">
<title>page&#45;day&#45;one</title>
<g id="a_page&#45;day&#45;one"><a xlink:title="page&#45;day&#45;one: Day One">
<path fill="#edf5ff" stroke="#376392" stroke-width="1.2" d="M354.24,-277.48C354.24,-277.48 285.54,-277.48 285.54,-277.48 279.54,-277.48 273.54,-271.48 273.54,-265.48 273.54,-265.48 273.54,-236.92 273.54,-236.92 273.54,-230.92 279.54,-224.92 285.54,-224.92 285.54,-224.92 354.24,-224.92 354.24,-224.92 360.24,-224.92 366.24,-230.92 366.24,-236.92 366.24,-236.92 366.24,-265.48 366.24,-265.48 366.24,-271.48 360.24,-277.48 354.24,-277.48"/>
<text xml:space="preserve" text-anchor="middle" x="319.89" y="-261.1" font-family="Arial" font-size="11.00">Day One</text>
<text xml:space="preserve" text-anchor="middle" x="319.89" y="-247.9" font-family="Arial" font-size="11.00">[day&#45;page]</text>
<text xml:space="preserve" text-anchor="middle" x="319.89" y="-234.7" font-family="Arial" font-size="11.00">Proposed MVP</text>
</a>
</g>
</g>
<!-- page&#45;course&#45;home&#45;&gt;page&#45;day&#45;one -->
<g id="relation&#45;home&#45;contains&#45;day&#45;one" class="edge">
<title>page&#45;course&#45;home&#45;&gt;page&#45;day&#45;one</title>
<g id="a_relation&#45;home&#45;contains&#45;day&#45;one"><a xlink:title="relation&#45;home&#45;contains&#45;day&#45;one: page&#45;course&#45;home contains page&#45;day&#45;one">
<path fill="none" stroke="#b6aa9b" stroke-width="1.1" d="M750.28,-374C630.26,-374 319.89,-374 319.89,-374 319.89,-374 319.89,-313.96 319.89,-277.85"/>
</a>
</g>
</g>
<!-- page&#45;day&#45;two -->
<g id="page&#45;day&#45;two" class="node">
<title>page&#45;day&#45;two</title>
<g id="a_page&#45;day&#45;two"><a xlink:title="page&#45;day&#45;two: Day Two">
<path fill="#edf5ff" stroke="#376392" stroke-width="1.2" d="M490.24,-277.48C490.24,-277.48 421.54,-277.48 421.54,-277.48 415.54,-277.48 409.54,-271.48 409.54,-265.48 409.54,-265.48 409.54,-236.92 409.54,-236.92 409.54,-230.92 415.54,-224.92 421.54,-224.92 421.54,-224.92 490.24,-224.92 490.24,-224.92 496.24,-224.92 502.24,-230.92 502.24,-236.92 502.24,-236.92 502.24,-265.48 502.24,-265.48 502.24,-271.48 496.24,-277.48 490.24,-277.48"/>
<text xml:space="preserve" text-anchor="middle" x="455.89" y="-261.1" font-family="Arial" font-size="11.00">Day Two</text>
<text xml:space="preserve" text-anchor="middle" x="455.89" y="-247.9" font-family="Arial" font-size="11.00">[day&#45;page]</text>
<text xml:space="preserve" text-anchor="middle" x="455.89" y="-234.7" font-family="Arial" font-size="11.00">Proposed MVP</text>
</a>
</g>
</g>
<!-- page&#45;course&#45;home&#45;&gt;page&#45;day&#45;two -->
<g id="relation&#45;home&#45;contains&#45;day&#45;two" class="edge">
<title>page&#45;course&#45;home&#45;&gt;page&#45;day&#45;two</title>
<g id="a_relation&#45;home&#45;contains&#45;day&#45;two"><a xlink:title="relation&#45;home&#45;contains&#45;day&#45;two: page&#45;course&#45;home contains page&#45;day&#45;two">
<path fill="none" stroke="#b6aa9b" stroke-width="1.1" d="M750.19,-363C656.8,-363 455.89,-363 455.89,-363 455.89,-363 455.89,-311.05 455.89,-277.98"/>
</a>
</g>
</g>
<!-- page&#45;resources -->
<g id="page&#45;resources" class="node">
<title>page&#45;resources</title>
<g id="a_page&#45;resources"><a xlink:title="page&#45;resources: Resources">
<path fill="#edf5ff" stroke="#376392" stroke-width="1.2" d="M623.24,-277.48C623.24,-277.48 554.54,-277.48 554.54,-277.48 548.54,-277.48 542.54,-271.48 542.54,-265.48 542.54,-265.48 542.54,-236.92 542.54,-236.92 542.54,-230.92 548.54,-224.92 554.54,-224.92 554.54,-224.92 623.24,-224.92 623.24,-224.92 629.24,-224.92 635.24,-230.92 635.24,-236.92 635.24,-236.92 635.24,-265.48 635.24,-265.48 635.24,-271.48 629.24,-277.48 623.24,-277.48"/>
<text xml:space="preserve" text-anchor="middle" x="588.89" y="-261.1" font-family="Arial" font-size="11.00">Resources</text>
<text xml:space="preserve" text-anchor="middle" x="588.89" y="-247.9" font-family="Arial" font-size="11.00">[support&#45;page]</text>
<text xml:space="preserve" text-anchor="middle" x="588.89" y="-234.7" font-family="Arial" font-size="11.00">Proposed MVP</text>
</a>
</g>
</g>
<!-- page&#45;course&#45;home&#45;&gt;page&#45;resources -->
<g id="relation&#45;home&#45;contains&#45;resources" class="edge">
<title>page&#45;course&#45;home&#45;&gt;page&#45;resources</title>
<g id="a_relation&#45;home&#45;contains&#45;resources"><a xlink:title="relation&#45;home&#45;contains&#45;resources: page&#45;course&#45;home contains page&#45;resources">
<path fill="none" stroke="#b6aa9b" stroke-width="1.1" d="M749.95,-353C688.6,-353 588.89,-353 588.89,-353 588.89,-353 588.89,-308.11 588.89,-277.95"/>
</a>
</g>
</g>
<!-- page&#45;facilitator -->
<g id="page&#45;facilitator" class="node">
<title>page&#45;facilitator</title>
<g id="a_page&#45;facilitator"><a xlink:title="page&#45;facilitator: Facilitator">
<path fill="#edf5ff" stroke="#376392" stroke-width="1.2" d="M756.86,-277.48C756.86,-277.48 686.92,-277.48 686.92,-277.48 680.92,-277.48 674.92,-271.48 674.92,-265.48 674.92,-265.48 674.92,-236.92 674.92,-236.92 674.92,-230.92 680.92,-224.92 686.92,-224.92 686.92,-224.92 756.86,-224.92 756.86,-224.92 762.86,-224.92 768.86,-230.92 768.86,-236.92 768.86,-236.92 768.86,-265.48 768.86,-265.48 768.86,-271.48 762.86,-277.48 756.86,-277.48"/>
<text xml:space="preserve" text-anchor="middle" x="721.89" y="-261.1" font-family="Arial" font-size="11.00">Facilitator</text>
<text xml:space="preserve" text-anchor="middle" x="721.89" y="-247.9" font-family="Arial" font-size="11.00">[operator&#45;page]</text>
<text xml:space="preserve" text-anchor="middle" x="721.89" y="-234.7" font-family="Arial" font-size="11.00">Proposed MVP</text>
</a>
</g>
</g>
<!-- page&#45;course&#45;home&#45;&gt;page&#45;facilitator -->
<g id="relation&#45;home&#45;contains&#45;facilitator" class="edge">
<title>page&#45;course&#45;home&#45;&gt;page&#45;facilitator</title>
<g id="a_relation&#45;home&#45;contains&#45;facilitator"><a xlink:title="relation&#45;home&#45;contains&#45;facilitator: page&#45;course&#45;home contains page&#45;facilitator">
<path fill="none" stroke="#b6aa9b" stroke-width="1.1" d="M759.7,-341.93C759.7,-322.72 759.7,-296.91 759.7,-277.73"/>
</a>
</g>
</g>
<!-- feature&#45;search -->
<g id="feature&#45;search" class="node">
<title>feature&#45;search</title>
<g id="a_feature&#45;search"><a xlink:title="feature&#45;search: Search">
<path fill="#fffdfa" stroke="#817363" stroke-width="1.2" d="M923.05,-277.48C923.05,-277.48 820.72,-277.48 820.72,-277.48 814.72,-277.48 808.72,-271.48 808.72,-265.48 808.72,-265.48 808.72,-236.92 808.72,-236.92 808.72,-230.92 814.72,-224.92 820.72,-224.92 820.72,-224.92 923.05,-224.92 923.05,-224.92 929.05,-224.92 935.05,-230.92 935.05,-236.92 935.05,-236.92 935.05,-265.48 935.05,-265.48 935.05,-271.48 929.05,-277.48 923.05,-277.48"/>
<text xml:space="preserve" text-anchor="middle" x="871.89" y="-261.1" font-family="Arial" font-size="11.00">Search</text>
<text xml:space="preserve" text-anchor="middle" x="871.89" y="-247.9" font-family="Arial" font-size="11.00">[optional&#45;later&#45;feature]</text>
<text xml:space="preserve" text-anchor="middle" x="871.89" y="-234.7" font-family="Arial" font-size="11.00">Optional later</text>
</a>
</g>
</g>
<!-- page&#45;course&#45;home&#45;&gt;feature&#45;search -->
<g id="relation&#45;home&#45;defers&#45;search" class="edge">
<title>page&#45;course&#45;home&#45;&gt;feature&#45;search</title>
<g id="a_relation&#45;home&#45;defers&#45;search"><a xlink:title="relation&#45;home&#45;defers&#45;search: page&#45;course&#45;home defers feature&#45;search">
<path fill="none" stroke="#9b8c78" stroke-dasharray="5,2" d="M825.98,-341.93C825.98,-322.72 825.98,-296.91 825.98,-277.73"/>
</a>
</g>
<text xml:space="preserve" text-anchor="middle" x="884.39" y="-307.18" font-family="Arial" font-size="9.00" fill="#5f5143">defers</text>
</g>
<!-- feature&#45;progress -->
<g id="feature&#45;progress" class="node">
<title>feature&#45;progress</title>
<g id="a_feature&#45;progress"><a xlink:title="feature&#45;progress: Progress">
<path fill="#fffdfa" stroke="#817363" stroke-width="1.2" d="M1089.05,-277.48C1089.05,-277.48 986.72,-277.48 986.72,-277.48 980.72,-277.48 974.72,-271.48 974.72,-265.48 974.72,-265.48 974.72,-236.92 974.72,-236.92 974.72,-230.92 980.72,-224.92 986.72,-224.92 986.72,-224.92 1089.05,-224.92 1089.05,-224.92 1095.05,-224.92 1101.05,-230.92 1101.05,-236.92 1101.05,-236.92 1101.05,-265.48 1101.05,-265.48 1101.05,-271.48 1095.05,-277.48 1089.05,-277.48"/>
<text xml:space="preserve" text-anchor="middle" x="1037.89" y="-261.1" font-family="Arial" font-size="11.00">Progress</text>
<text xml:space="preserve" text-anchor="middle" x="1037.89" y="-247.9" font-family="Arial" font-size="11.00">[optional&#45;later&#45;feature]</text>
<text xml:space="preserve" text-anchor="middle" x="1037.89" y="-234.7" font-family="Arial" font-size="11.00">Optional later</text>
</a>
</g>
</g>
<!-- page&#45;course&#45;home&#45;&gt;feature&#45;progress -->
<g id="relation&#45;home&#45;defers&#45;progress" class="edge">
<title>page&#45;course&#45;home&#45;&gt;feature&#45;progress</title>
<g id="a_relation&#45;home&#45;defers&#45;progress"><a xlink:title="relation&#45;home&#45;defers&#45;progress: page&#45;course&#45;home defers feature&#45;progress">
<path fill="none" stroke="#9b8c78" stroke-dasharray="5,2" d="M843.64,-353C913.72,-353 1037.89,-353 1037.89,-353 1037.89,-353 1037.89,-308.11 1037.89,-277.95"/>
</a>
</g>
<text xml:space="preserve" text-anchor="middle" x="1050.39" y="-307.18" font-family="Arial" font-size="9.00" fill="#5f5143">defers</text>
</g>
<!-- feature&#45;admin&#45;editing -->
<g id="feature&#45;admin&#45;editing" class="node">
<title>feature&#45;admin&#45;editing</title>
<g id="a_feature&#45;admin&#45;editing"><a xlink:title="feature&#45;admin&#45;editing: Admin editing">
<path fill="#fffdfa" stroke="#817363" stroke-width="1.2" d="M1255.05,-277.48C1255.05,-277.48 1152.72,-277.48 1152.72,-277.48 1146.72,-277.48 1140.72,-271.48 1140.72,-265.48 1140.72,-265.48 1140.72,-236.92 1140.72,-236.92 1140.72,-230.92 1146.72,-224.92 1152.72,-224.92 1152.72,-224.92 1255.05,-224.92 1255.05,-224.92 1261.05,-224.92 1267.05,-230.92 1267.05,-236.92 1267.05,-236.92 1267.05,-265.48 1267.05,-265.48 1267.05,-271.48 1261.05,-277.48 1255.05,-277.48"/>
<text xml:space="preserve" text-anchor="middle" x="1203.89" y="-261.1" font-family="Arial" font-size="11.00">Admin editing</text>
<text xml:space="preserve" text-anchor="middle" x="1203.89" y="-247.9" font-family="Arial" font-size="11.00">[optional&#45;later&#45;feature]</text>
<text xml:space="preserve" text-anchor="middle" x="1203.89" y="-234.7" font-family="Arial" font-size="11.00">Optional later</text>
</a>
</g>
</g>
<!-- page&#45;course&#45;home&#45;&gt;feature&#45;admin&#45;editing -->
<g id="relation&#45;home&#45;defers&#45;admin&#45;editing" class="edge">
<title>page&#45;course&#45;home&#45;&gt;feature&#45;admin&#45;editing</title>
<g id="a_relation&#45;home&#45;defers&#45;admin&#45;editing"><a xlink:title="relation&#45;home&#45;defers&#45;admin&#45;editing: page&#45;course&#45;home defers feature&#45;admin&#45;editing">
<path fill="none" stroke="#9b8c78" stroke-dasharray="5,2" d="M843.57,-363C950.48,-363 1203.89,-363 1203.89,-363 1203.89,-363 1203.89,-311.05 1203.89,-277.98"/>
</a>
</g>
<text xml:space="preserve" text-anchor="middle" x="1216.39" y="-307.18" font-family="Arial" font-size="9.00" fill="#5f5143">defers</text>
</g>
<!-- feature&#45;cohorts -->
<g id="feature&#45;cohorts" class="node">
<title>feature&#45;cohorts</title>
<g id="a_feature&#45;cohorts"><a xlink:title="feature&#45;cohorts: Cohorts">
<path fill="#fffdfa" stroke="#817363" stroke-width="1.2" d="M1421.05,-277.48C1421.05,-277.48 1318.72,-277.48 1318.72,-277.48 1312.72,-277.48 1306.72,-271.48 1306.72,-265.48 1306.72,-265.48 1306.72,-236.92 1306.72,-236.92 1306.72,-230.92 1312.72,-224.92 1318.72,-224.92 1318.72,-224.92 1421.05,-224.92 1421.05,-224.92 1427.05,-224.92 1433.05,-230.92 1433.05,-236.92 1433.05,-236.92 1433.05,-265.48 1433.05,-265.48 1433.05,-271.48 1427.05,-277.48 1421.05,-277.48"/>
<text xml:space="preserve" text-anchor="middle" x="1369.89" y="-261.1" font-family="Arial" font-size="11.00">Cohorts</text>
<text xml:space="preserve" text-anchor="middle" x="1369.89" y="-247.9" font-family="Arial" font-size="11.00">[optional&#45;later&#45;feature]</text>
<text xml:space="preserve" text-anchor="middle" x="1369.89" y="-234.7" font-family="Arial" font-size="11.00">Optional later</text>
</a>
</g>
</g>
<!-- page&#45;course&#45;home&#45;&gt;feature&#45;cohorts -->
<g id="relation&#45;home&#45;defers&#45;cohorts" class="edge">
<title>page&#45;course&#45;home&#45;&gt;feature&#45;cohorts</title>
<g id="a_relation&#45;home&#45;defers&#45;cohorts"><a xlink:title="relation&#45;home&#45;defers&#45;cohorts: page&#45;course&#45;home defers feature&#45;cohorts">
<path fill="none" stroke="#9b8c78" stroke-dasharray="5,2" d="M843.78,-374C980.63,-374 1369.89,-374 1369.89,-374 1369.89,-374 1369.89,-313.96 1369.89,-277.85"/>
</a>
</g>
<text xml:space="preserve" text-anchor="middle" x="1382.39" y="-307.18" font-family="Arial" font-size="9.00" fill="#5f5143">defers</text>
</g>
<!-- feature&#45;login -->
<g id="feature&#45;login" class="node">
<title>feature&#45;login</title>
<g id="a_feature&#45;login"><a xlink:title="feature&#45;login: Login">
<path fill="#fffdfa" stroke="#817363" stroke-width="1.2" d="M1587.05,-277.48C1587.05,-277.48 1484.72,-277.48 1484.72,-277.48 1478.72,-277.48 1472.72,-271.48 1472.72,-265.48 1472.72,-265.48 1472.72,-236.92 1472.72,-236.92 1472.72,-230.92 1478.72,-224.92 1484.72,-224.92 1484.72,-224.92 1587.05,-224.92 1587.05,-224.92 1593.05,-224.92 1599.05,-230.92 1599.05,-236.92 1599.05,-236.92 1599.05,-265.48 1599.05,-265.48 1599.05,-271.48 1593.05,-277.48 1587.05,-277.48"/>
<text xml:space="preserve" text-anchor="middle" x="1535.89" y="-261.1" font-family="Arial" font-size="11.00">Login</text>
<text xml:space="preserve" text-anchor="middle" x="1535.89" y="-247.9" font-family="Arial" font-size="11.00">[optional&#45;later&#45;feature]</text>
<text xml:space="preserve" text-anchor="middle" x="1535.89" y="-234.7" font-family="Arial" font-size="11.00">Optional later</text>
</a>
</g>
</g>
<!-- page&#45;course&#45;home&#45;&gt;feature&#45;login -->
<g id="relation&#45;home&#45;defers&#45;login" class="edge">
<title>page&#45;course&#45;home&#45;&gt;feature&#45;login</title>
<g id="a_relation&#45;home&#45;defers&#45;login"><a xlink:title="relation&#45;home&#45;defers&#45;login: page&#45;course&#45;home defers feature&#45;login">
<path fill="none" stroke="#9b8c78" stroke-dasharray="5,2" d="M843.68,-384C1006.12,-384 1535.89,-384 1535.89,-384 1535.89,-384 1535.89,-316.88 1535.89,-278.07"/>
</a>
</g>
<text xml:space="preserve" text-anchor="middle" x="1548.39" y="-307.18" font-family="Arial" font-size="9.00" fill="#5f5143">defers</text>
</g>
<!-- page&#45;breakout&#45;1 -->
<g id="page&#45;breakout&#45;1" class="node">
<title>page&#45;breakout&#45;1</title>
<g id="a_page&#45;breakout&#45;1"><a xlink:title="page&#45;breakout&#45;1: Breakout 1">
<path fill="#edf5ff" stroke="#376392" stroke-width="1.2" d="M83.77,-169.92C83.77,-169.92 12,-169.92 12,-169.92 6,-169.92 0,-163.92 0,-157.92 0,-157.92 0,-129.36 0,-129.36 0,-123.36 6,-117.36 12,-117.36 12,-117.36 83.77,-117.36 83.77,-117.36 89.77,-117.36 95.77,-123.36 95.77,-129.36 95.77,-129.36 95.77,-157.92 95.77,-157.92 95.77,-163.92 89.77,-169.92 83.77,-169.92"/>
<text xml:space="preserve" text-anchor="middle" x="47.89" y="-153.54" font-family="Arial" font-size="11.00">Breakout 1</text>
<text xml:space="preserve" text-anchor="middle" x="47.89" y="-140.34" font-family="Arial" font-size="11.00">[breakout&#45;page]</text>
<text xml:space="preserve" text-anchor="middle" x="47.89" y="-127.14" font-family="Arial" font-size="11.00">Proposed MVP</text>
</a>
</g>
</g>
<!-- page&#45;day&#45;one&#45;&gt;page&#45;breakout&#45;1 -->
<g id="relation&#45;day&#45;one&#45;contains&#45;breakout&#45;1" class="edge">
<title>page&#45;day&#45;one&#45;&gt;page&#45;breakout&#45;1</title>
<g id="a_relation&#45;day&#45;one&#45;contains&#45;breakout&#45;1"><a xlink:title="relation&#45;day&#45;one&#45;contains&#45;breakout&#45;1: page&#45;day&#45;one contains page&#45;breakout&#45;1">
<path fill="none" stroke="#b6aa9b" stroke-width="1.1" d="M304.44,-224.47C304.44,-215.16 304.44,-207 304.44,-207 304.44,-207 47.89,-207 47.89,-207 47.89,-207 47.89,-187.78 47.89,-170.51"/>
</a>
</g>
</g>
<!-- page&#45;breakout&#45;2 -->
<g id="page&#45;breakout&#45;2" class="node">
<title>page&#45;breakout&#45;2</title>
<g id="a_page&#45;breakout&#45;2"><a xlink:title="page&#45;breakout&#45;2: Breakout 2">
<path fill="#edf5ff" stroke="#376392" stroke-width="1.2" d="M219.77,-169.92C219.77,-169.92 148,-169.92 148,-169.92 142,-169.92 136,-163.92 136,-157.92 136,-157.92 136,-129.36 136,-129.36 136,-123.36 142,-117.36 148,-117.36 148,-117.36 219.77,-117.36 219.77,-117.36 225.77,-117.36 231.77,-123.36 231.77,-129.36 231.77,-129.36 231.77,-157.92 231.77,-157.92 231.77,-163.92 225.77,-169.92 219.77,-169.92"/>
<text xml:space="preserve" text-anchor="middle" x="183.89" y="-153.54" font-family="Arial" font-size="11.00">Breakout 2</text>
<text xml:space="preserve" text-anchor="middle" x="183.89" y="-140.34" font-family="Arial" font-size="11.00">[breakout&#45;page]</text>
<text xml:space="preserve" text-anchor="middle" x="183.89" y="-127.14" font-family="Arial" font-size="11.00">Proposed MVP</text>
</a>
</g>
</g>
<!-- page&#45;day&#45;one&#45;&gt;page&#45;breakout&#45;2 -->
<g id="relation&#45;day&#45;one&#45;contains&#45;breakout&#45;2" class="edge">
<title>page&#45;day&#45;one&#45;&gt;page&#45;breakout&#45;2</title>
<g id="a_relation&#45;day&#45;one&#45;contains&#45;breakout&#45;2"><a xlink:title="relation&#45;day&#45;one&#45;contains&#45;breakout&#45;2: page&#45;day&#45;one contains page&#45;breakout&#45;2">
<path fill="none" stroke="#b6aa9b" stroke-width="1.1" d="M273.25,-251C261.8,-251 252.75,-251 252.75,-251 252.75,-251 252.75,-144 252.75,-144 252.75,-144 243.66,-144 232.09,-144"/>
</a>
</g>
</g>
<!-- page&#45;breakout&#45;3 -->
<g id="page&#45;breakout&#45;3" class="node">
<title>page&#45;breakout&#45;3</title>
<g id="a_page&#45;breakout&#45;3"><a xlink:title="page&#45;breakout&#45;3: Breakout 3">
<path fill="#edf5ff" stroke="#376392" stroke-width="1.2" d="M355.77,-169.92C355.77,-169.92 284,-169.92 284,-169.92 278,-169.92 272,-163.92 272,-157.92 272,-157.92 272,-129.36 272,-129.36 272,-123.36 278,-117.36 284,-117.36 284,-117.36 355.77,-117.36 355.77,-117.36 361.77,-117.36 367.77,-123.36 367.77,-129.36 367.77,-129.36 367.77,-157.92 367.77,-157.92 367.77,-163.92 361.77,-169.92 355.77,-169.92"/>
<text xml:space="preserve" text-anchor="middle" x="319.89" y="-153.54" font-family="Arial" font-size="11.00">Breakout 3</text>
<text xml:space="preserve" text-anchor="middle" x="319.89" y="-140.34" font-family="Arial" font-size="11.00">[breakout&#45;page]</text>
<text xml:space="preserve" text-anchor="middle" x="319.89" y="-127.14" font-family="Arial" font-size="11.00">Proposed MVP</text>
</a>
</g>
</g>
<!-- page&#45;day&#45;one&#45;&gt;page&#45;breakout&#45;3 -->
<g id="relation&#45;day&#45;one&#45;contains&#45;breakout&#45;3" class="edge">
<title>page&#45;day&#45;one&#45;&gt;page&#45;breakout&#45;3</title>
<g id="a_relation&#45;day&#45;one&#45;contains&#45;breakout&#45;3"><a xlink:title="relation&#45;day&#45;one&#45;contains&#45;breakout&#45;3: page&#45;day&#45;one contains page&#45;breakout&#45;3">
<path fill="none" stroke="#b6aa9b" stroke-width="1.1" d="M335.34,-224.34C335.34,-207.78 335.34,-186.65 335.34,-170.16"/>
</a>
</g>
</g>
<!-- page&#45;breakout&#45;4 -->
<g id="page&#45;breakout&#45;4" class="node">
<title>page&#45;breakout&#45;4</title>
<g id="a_page&#45;breakout&#45;4"><a xlink:title="page&#45;breakout&#45;4: Breakout 4">
<path fill="#edf5ff" stroke="#376392" stroke-width="1.2" d="M491.77,-169.92C491.77,-169.92 420,-169.92 420,-169.92 414,-169.92 408,-163.92 408,-157.92 408,-157.92 408,-129.36 408,-129.36 408,-123.36 414,-117.36 420,-117.36 420,-117.36 491.77,-117.36 491.77,-117.36 497.77,-117.36 503.77,-123.36 503.77,-129.36 503.77,-129.36 503.77,-157.92 503.77,-157.92 503.77,-163.92 497.77,-169.92 491.77,-169.92"/>
<text xml:space="preserve" text-anchor="middle" x="455.89" y="-153.54" font-family="Arial" font-size="11.00">Breakout 4</text>
<text xml:space="preserve" text-anchor="middle" x="455.89" y="-140.34" font-family="Arial" font-size="11.00">[breakout&#45;page]</text>
<text xml:space="preserve" text-anchor="middle" x="455.89" y="-127.14" font-family="Arial" font-size="11.00">Proposed MVP</text>
</a>
</g>
</g>
<!-- page&#45;day&#45;two&#45;&gt;page&#45;breakout&#45;4 -->
<g id="relation&#45;day&#45;two&#45;contains&#45;breakout&#45;4" class="edge">
<title>page&#45;day&#45;two&#45;&gt;page&#45;breakout&#45;4</title>
<g id="a_relation&#45;day&#45;two&#45;contains&#45;breakout&#45;4"><a xlink:title="relation&#45;day&#45;two&#45;contains&#45;breakout&#45;4: page&#45;day&#45;two contains page&#45;breakout&#45;4">
<path fill="none" stroke="#b6aa9b" stroke-width="1.1" d="M440.44,-224.34C440.44,-207.78 440.44,-186.65 440.44,-170.16"/>
</a>
</g>
</g>
<!-- page&#45;breakout&#45;5 -->
<g id="page&#45;breakout&#45;5" class="node">
<title>page&#45;breakout&#45;5</title>
<g id="a_page&#45;breakout&#45;5"><a xlink:title="page&#45;breakout&#45;5: Breakout 5">
<path fill="#edf5ff" stroke="#376392" stroke-width="1.2" d="M627.77,-169.92C627.77,-169.92 556,-169.92 556,-169.92 550,-169.92 544,-163.92 544,-157.92 544,-157.92 544,-129.36 544,-129.36 544,-123.36 550,-117.36 556,-117.36 556,-117.36 627.77,-117.36 627.77,-117.36 633.77,-117.36 639.77,-123.36 639.77,-129.36 639.77,-129.36 639.77,-157.92 639.77,-157.92 639.77,-163.92 633.77,-169.92 627.77,-169.92"/>
<text xml:space="preserve" text-anchor="middle" x="591.89" y="-153.54" font-family="Arial" font-size="11.00">Breakout 5</text>
<text xml:space="preserve" text-anchor="middle" x="591.89" y="-140.34" font-family="Arial" font-size="11.00">[breakout&#45;page]</text>
<text xml:space="preserve" text-anchor="middle" x="591.89" y="-127.14" font-family="Arial" font-size="11.00">Proposed MVP</text>
</a>
</g>
</g>
<!-- page&#45;day&#45;two&#45;&gt;page&#45;breakout&#45;5 -->
<g id="relation&#45;day&#45;two&#45;contains&#45;breakout&#45;5" class="edge">
<title>page&#45;day&#45;two&#45;&gt;page&#45;breakout&#45;5</title>
<g id="a_relation&#45;day&#45;two&#45;contains&#45;breakout&#45;5"><a xlink:title="relation&#45;day&#45;two&#45;contains&#45;breakout&#45;5: page&#45;day&#45;two contains page&#45;breakout&#45;5">
<path fill="none" stroke="#b6aa9b" stroke-width="1.1" d="M502.61,-251C514.09,-251 523.15,-251 523.15,-251 523.15,-251 523.15,-144 523.15,-144 523.15,-144 532.03,-144 543.41,-144"/>
</a>
</g>
</g>
<!-- page&#45;breakout&#45;6 -->
<g id="page&#45;breakout&#45;6" class="node">
<title>page&#45;breakout&#45;6</title>
<g id="a_page&#45;breakout&#45;6"><a xlink:title="page&#45;breakout&#45;6: Breakout 6">
<path fill="#edf5ff" stroke="#376392" stroke-width="1.2" d="M763.77,-169.92C763.77,-169.92 692,-169.92 692,-169.92 686,-169.92 680,-163.92 680,-157.92 680,-157.92 680,-129.36 680,-129.36 680,-123.36 686,-117.36 692,-117.36 692,-117.36 763.77,-117.36 763.77,-117.36 769.77,-117.36 775.77,-123.36 775.77,-129.36 775.77,-129.36 775.77,-157.92 775.77,-157.92 775.77,-163.92 769.77,-169.92 763.77,-169.92"/>
<text xml:space="preserve" text-anchor="middle" x="727.89" y="-153.54" font-family="Arial" font-size="11.00">Breakout 6</text>
<text xml:space="preserve" text-anchor="middle" x="727.89" y="-140.34" font-family="Arial" font-size="11.00">[breakout&#45;page]</text>
<text xml:space="preserve" text-anchor="middle" x="727.89" y="-127.14" font-family="Arial" font-size="11.00">Proposed MVP</text>
</a>
</g>
</g>
<!-- page&#45;day&#45;two&#45;&gt;page&#45;breakout&#45;6 -->
<g id="relation&#45;day&#45;two&#45;contains&#45;breakout&#45;6" class="edge">
<title>page&#45;day&#45;two&#45;&gt;page&#45;breakout&#45;6</title>
<g id="a_relation&#45;day&#45;two&#45;contains&#45;breakout&#45;6"><a xlink:title="relation&#45;day&#45;two&#45;contains&#45;breakout&#45;6: page&#45;day&#45;two contains page&#45;breakout&#45;6">
<path fill="none" stroke="#b6aa9b" stroke-width="1.1" d="M471.34,-224.4C471.34,-207.17 471.34,-188 471.34,-188 471.34,-188 724.43,-188 724.43,-188 724.43,-188 724.43,-179.81 724.43,-170.47"/>
</a>
</g>
</g>
<!-- system&#45;wistia -->
<g id="system&#45;wistia" class="node">
<title>system&#45;wistia</title>
<g id="a_system&#45;wistia"><a xlink:title="system&#45;wistia: Wistia media layer">
<path fill="#fffdfa" stroke="#817363" stroke-width="1.2" d="M430.18,-52.56C430.18,-52.56 345.6,-52.56 345.6,-52.56 339.6,-52.56 333.6,-46.56 333.6,-40.56 333.6,-40.56 333.6,-12 333.6,-12 333.6,-6 339.6,0 345.6,0 345.6,0 430.18,0 430.18,0 436.18,0 442.18,-6 442.18,-12 442.18,-12 442.18,-40.56 442.18,-40.56 442.18,-46.56 436.18,-52.56 430.18,-52.56"/>
<text xml:space="preserve" text-anchor="middle" x="387.89" y="-36.18" font-family="Arial" font-size="11.00">Wistia media layer</text>
<text xml:space="preserve" text-anchor="middle" x="387.89" y="-22.98" font-family="Arial" font-size="11.00">[media&#45;layer]</text>
<text xml:space="preserve" text-anchor="middle" x="387.89" y="-9.78" font-family="Arial" font-size="11.00">Kept media layer</text>
</a>
</g>
</g>
<!-- page&#45;breakout&#45;1&#45;&gt;system&#45;wistia -->
<g id="relation&#45;breakout&#45;1&#45;uses&#45;wistia" class="edge">
<title>page&#45;breakout&#45;1&#45;&gt;system&#45;wistia</title>
<g id="a_relation&#45;breakout&#45;1&#45;uses&#45;wistia"><a xlink:title="relation&#45;breakout&#45;1&#45;uses&#45;wistia: page&#45;breakout&#45;1 uses media from system&#45;wistia">
<path fill="none" stroke="#6c727f" stroke-dasharray="1,5" d="M47.89,-116.99C47.89,-80.11 47.89,-18 47.89,-18 47.89,-18 325.25,-18 325.25,-18"/>
<polygon fill="#6c727f" stroke="#6c727f" points="325.25,-20.28 331.75,-18 325.25,-15.73 325.25,-20.28"/>
</a>
</g>
<text xml:space="preserve" text-anchor="middle" x="105.15" y="-82.26" font-family="Arial" font-size="9.00" fill="#5f5143">uses media from</text>
</g>
<!-- page&#45;breakout&#45;2&#45;&gt;system&#45;wistia -->
<g id="relation&#45;breakout&#45;2&#45;uses&#45;wistia" class="edge">
<title>page&#45;breakout&#45;2&#45;&gt;system&#45;wistia</title>
<g id="a_relation&#45;breakout&#45;2&#45;uses&#45;wistia"><a xlink:title="relation&#45;breakout&#45;2&#45;uses&#45;wistia: page&#45;breakout&#45;2 uses media from system&#45;wistia">
<path fill="none" stroke="#6c727f" stroke-dasharray="1,5" d="M183.89,-116.79C183.89,-84.61 183.89,-35 183.89,-35 183.89,-35 325.21,-35 325.21,-35"/>
<polygon fill="#6c727f" stroke="#6c727f" points="325.21,-37.28 331.71,-35 325.21,-32.73 325.21,-37.28"/>
</a>
</g>
<text xml:space="preserve" text-anchor="middle" x="229.15" y="-82.26" font-family="Arial" font-size="9.00" fill="#5f5143">uses media from</text>
</g>
<!-- page&#45;breakout&#45;3&#45;&gt;system&#45;wistia -->
<g id="relation&#45;breakout&#45;3&#45;uses&#45;wistia" class="edge">
<title>page&#45;breakout&#45;3&#45;&gt;system&#45;wistia</title>
<g id="a_relation&#45;breakout&#45;3&#45;uses&#45;wistia"><a xlink:title="relation&#45;breakout&#45;3&#45;uses&#45;wistia: page&#45;breakout&#45;3 uses media from system&#45;wistia">
<path fill="none" stroke="#6c727f" stroke-dasharray="1,5" d="M350.69,-117.01C350.69,-117.01 350.69,-60.82 350.69,-60.82"/>
<polygon fill="#6c727f" stroke="#6c727f" points="352.96,-60.82 350.69,-54.32 348.41,-60.82 352.96,-60.82"/>
</a>
</g>
<text xml:space="preserve" text-anchor="middle" x="359.15" y="-82.26" font-family="Arial" font-size="9.00" fill="#5f5143">uses media from</text>
</g>
<!-- page&#45;breakout&#45;4&#45;&gt;system&#45;wistia -->
<g id="relation&#45;breakout&#45;4&#45;uses&#45;wistia" class="edge">
<title>page&#45;breakout&#45;4&#45;&gt;system&#45;wistia</title>
<g id="a_relation&#45;breakout&#45;4&#45;uses&#45;wistia"><a xlink:title="relation&#45;breakout&#45;4&#45;uses&#45;wistia: page&#45;breakout&#45;4 uses media from system&#45;wistia">
<path fill="none" stroke="#6c727f" stroke-dasharray="1,5" d="M425.09,-117.01C425.09,-117.01 425.09,-60.82 425.09,-60.82"/>
<polygon fill="#6c727f" stroke="#6c727f" points="427.36,-60.82 425.09,-54.32 422.81,-60.82 427.36,-60.82"/>
</a>
</g>
<text xml:space="preserve" text-anchor="middle" x="483.15" y="-82.26" font-family="Arial" font-size="9.00" fill="#5f5143">uses media from</text>
</g>
<!-- page&#45;breakout&#45;5&#45;&gt;system&#45;wistia -->
<g id="relation&#45;breakout&#45;5&#45;uses&#45;wistia" class="edge">
<title>page&#45;breakout&#45;5&#45;&gt;system&#45;wistia</title>
<g id="a_relation&#45;breakout&#45;5&#45;uses&#45;wistia"><a xlink:title="relation&#45;breakout&#45;5&#45;uses&#45;wistia: page&#45;breakout&#45;5 uses media from system&#45;wistia">
<path fill="none" stroke="#6c727f" stroke-dasharray="1,5" d="M591.89,-116.79C591.89,-84.61 591.89,-35 591.89,-35 591.89,-35 450.57,-35 450.57,-35"/>
<polygon fill="#6c727f" stroke="#6c727f" points="450.57,-32.73 444.07,-35 450.57,-37.28 450.57,-32.73"/>
</a>
</g>
<text xml:space="preserve" text-anchor="middle" x="613.15" y="-82.26" font-family="Arial" font-size="9.00" fill="#5f5143">uses media from</text>
</g>
<!-- page&#45;breakout&#45;6&#45;&gt;system&#45;wistia -->
<g id="relation&#45;breakout&#45;6&#45;uses&#45;wistia" class="edge">
<title>page&#45;breakout&#45;6&#45;&gt;system&#45;wistia</title>
<g id="a_relation&#45;breakout&#45;6&#45;uses&#45;wistia"><a xlink:title="relation&#45;breakout&#45;6&#45;uses&#45;wistia: page&#45;breakout&#45;6 uses media from system&#45;wistia">
<path fill="none" stroke="#6c727f" stroke-dasharray="1,5" d="M727.89,-116.99C727.89,-80.11 727.89,-18 727.89,-18 727.89,-18 450.53,-18 450.53,-18"/>
<polygon fill="#6c727f" stroke="#6c727f" points="450.53,-15.73 444.03,-18 450.53,-20.28 450.53,-15.73"/>
</a>
</g>
<text xml:space="preserve" text-anchor="middle" x="746.15" y="-82.26" font-family="Arial" font-size="9.00" fill="#5f5143">uses media from</text>
</g>
</g>
</svg>
